<?xml version="1.0" standalone="no"?>
<!DOCTYPE svg PUBLIC "-//W3C//DTD SVG 20010904//EN"
 "http://www.w3.org/TR/2001/REC-SVG-20010904/DTD/svg10.dtd">
<svg version="1.0" xmlns="http://www.w3.org/2000/svg"
 width="570.000000pt" height="456.000000pt" viewBox="0 0 570.000000 456.000000"
 preserveAspectRatio="xMidYMid meet">

<g transform="translate(0.000000,456.000000) scale(0.100000,-0.100000)"
fill="#000000" stroke="none">
<path d="M3155 4253 c-107 -15 -263 -56 -299 -79 -23 -14 -66 -59 -96 -100
-63 -86 -86 -104 -124 -97 -18 4 -31 0 -39 -10 -10 -13 -19 -15 -52 -7 -98 23
-158 9 -262 -61 -70 -48 -139 -139 -105 -139 13 0 104 32 131 47 15 7 32 13
39 13 7 0 20 4 30 9 26 14 153 41 193 41 35 0 69 -23 69 -47 0 -6 -12 -20 -27
-31 l-27 -20 30 -5 c67 -13 184 -18 184 -9 0 6 10 14 22 18 25 7 88 73 88 92
0 8 -19 12 -63 12 -35 0 -67 3 -70 6 -7 7 72 112 115 153 42 40 142 97 221
127 79 30 147 69 147 84 0 10 -46 11 -105 3z"/>
<path d="M350 3700 c0 -12 55 -55 66 -52 7 1 14 -4 18 -13 3 -8 14 -15 24 -15
10 0 22 -4 28 -8 5 -5 32 -17 59 -27 76 -27 154 -69 213 -114 51 -38 192 -201
192 -221 0 -10 -65 -15 -132 -11 -48 3 -49 -12 -3 -62 19 -21 35 -42 35 -48 0
-5 8 -9 18 -9 21 -1 52 -23 52 -39 0 -6 5 -11 10 -11 6 0 10 4 10 9 0 5 30 10
68 11 101 3 120 4 127 12 4 4 13 4 21 1 8 -3 14 0 14 5 0 6 -8 13 -19 17 -10
3 -26 14 -35 24 -16 17 -15 20 10 51 27 31 29 32 88 26 91 -8 294 -64 324 -88
8 -7 20 -13 26 -13 6 -1 24 -7 39 -13 16 -7 32 -10 37 -7 5 3 10 0 12 -6 5
-14 38 0 38 17 0 37 -193 196 -269 222 -42 15 -121 15 -191 2 -47 -9 -55 -8
-71 9 -14 15 -27 18 -57 14 -45 -6 -50 -2 -140 116 -75 96 -71 92 -120 124
-31 20 -85 37 -195 62 -139 31 -297 49 -297 35z"/>
<path d="M2332 3390 c-52 -32 -159 -145 -180 -190 -13 -30 -20 -68 -21 -126
-2 -77 1 -90 33 -160 55 -116 67 -173 51 -239 -26 -115 -94 -171 -216 -180
-35 -3 -86 -8 -114 -11 -27 -2 -77 -4 -110 -4 -61 1 -83 -8 -135 -59 -25 -25
-114 -59 -145 -57 -16 2 -48 11 -70 20 -49 22 -105 31 -140 22 -33 -8 -65 -61
-65 -107 0 -36 5 -44 78 -112 17 -16 33 -41 37 -55 7 -27 42 -72 57 -72 4 0
16 -7 27 -17 18 -15 18 -18 3 -42 -49 -77 -73 -98 -118 -105 -71 -9 -224 -123
-300 -223 -33 -43 -67 -90 -77 -105 -9 -14 -30 -29 -46 -33 -17 -3 -42 -15
-56 -26 -28 -23 -28 -21 -16 34 11 45 -3 97 -25 97 -10 0 -14 -13 -14 -46 0
-51 -14 -84 -35 -84 -9 0 -36 10 -61 21 -51 25 -87 17 -99 -21 -6 -20 -8 -19
-46 15 l-40 36 -54 -31 c-34 -20 -65 -30 -82 -28 -24 3 -29 9 -37 46 -6 23
-14 42 -18 42 -5 0 -16 -17 -25 -37 -14 -35 -14 -40 3 -71 22 -42 53 -57 91
-47 27 8 38 11 58 15 6 1 19 2 30 1 37 -3 -25 -41 -66 -41 -20 0 -42 -7 -49
-15 -10 -12 -41 -15 -156 -15 -86 0 -145 -4 -149 -10 -4 -6 -11 -8 -16 -5 -5
4 -9 -259 -9 -679 l0 -686 2845 0 2845 0 0 663 c0 364 -3 671 -6 683 -5 20
-13 21 -220 26 l-215 6 -24 26 c-29 31 -35 32 -68 6 -29 -23 -28 -23 -60 -11
-22 9 -23 12 -16 71 6 51 16 75 55 133 51 76 93 127 105 127 3 0 24 8 45 17
22 9 44 18 49 19 33 7 106 46 111 58 3 8 19 19 35 25 16 5 29 14 29 19 0 5 26
10 58 11 31 1 63 3 70 3 6 1 12 11 12 22 0 23 -69 66 -107 66 -30 0 -54 10
-48 21 9 13 -26 26 -86 32 -31 3 -75 16 -98 28 -37 19 -48 20 -79 11 -20 -6
-39 -8 -42 -4 -3 4 -18 18 -34 30 -30 23 -109 31 -121 12 -4 -6 -10 -8 -15 -5
-14 9 -50 -14 -50 -30 0 -12 -16 -15 -77 -16 -86 -1 -93 -2 -140 -20 -18 -7
-35 -11 -37 -8 -9 9 -46 199 -51 263 -6 76 -13 128 -25 186 -29 136 -36 250
-18 274 13 16 19 17 49 6 35 -12 89 -1 89 19 0 14 -49 50 -77 57 -24 6 -24 7
-3 21 39 27 20 71 -28 64 -15 -2 -29 5 -38 17 -8 11 -31 31 -51 43 -21 13 -42
29 -47 37 -22 37 -80 92 -96 92 -35 0 -41 -79 -11 -138 16 -33 22 -75 34 -237
2 -24 7 -30 24 -29 19 0 23 -7 32 -65 16 -103 20 -154 26 -326 3 -88 8 -197
11 -242 l6 -83 -31 0 c-17 0 -34 0 -37 1 -4 0 -10 -4 -14 -10 -3 -7 -23 -13
-44 -15 -46 -4 -56 -13 -23 -21 17 -5 24 -12 20 -21 -4 -11 9 -14 67 -14 l73
0 -6 -52 c-3 -29 -16 -87 -30 -128 -14 -41 -27 -87 -31 -101 -6 -25 -11 -28
-93 -39 -164 -21 -407 -71 -423 -85 -9 -8 -25 -15 -34 -15 -10 0 -59 -40 -109
-90 -50 -49 -91 -88 -92 -87 -8 15 -25 91 -25 115 0 17 -8 50 -18 74 -11 24
-22 57 -25 74 -3 18 -18 49 -32 69 -14 21 -25 48 -25 61 0 13 -7 39 -16 58
-24 50 -12 119 25 145 31 22 46 55 55 114 3 27 1 37 -7 34 -7 -2 -15 -22 -18
-44 -5 -41 -23 -73 -40 -73 -10 0 -45 80 -41 93 1 4 -2 7 -8 7 -14 0 -12 -22
4 -62 10 -24 12 -45 7 -70 -13 -56 -19 -61 -51 -38 -15 11 -35 18 -43 14 -26
-10 -45 31 -37 77 9 50 4 72 -31 129 l-28 45 27 3 c36 5 51 20 32 33 -13 8
-13 11 3 20 16 10 16 13 -13 45 -16 19 -30 45 -30 57 -1 20 -2 20 -11 5 -5
-10 -17 -18 -26 -18 -12 0 -13 3 -3 15 15 18 5 35 -20 35 -13 0 -17 -5 -14
-15 4 -8 2 -15 -4 -15 -5 0 -12 9 -15 20 -3 13 0 20 10 20 10 0 12 6 8 20 -8
25 -1 25 29 -1 26 -22 40 -25 42 -9 1 6 2 15 3 20 0 6 21 10 46 10 33 0 45 4
45 15 0 8 -4 15 -10 15 -5 0 -7 6 -5 13 3 7 27 13 57 14 56 3 96 27 65 39 -14
5 -15 9 -6 20 16 20 37 17 44 -5 5 -17 14 -19 67 -15 79 5 98 21 79 67 -7 17
-14 38 -15 45 -3 19 -26 32 -57 32 -20 0 -33 11 -58 51 -40 60 -73 77 -108 53
-15 -9 -35 -13 -48 -10 -15 4 -25 1 -29 -9 -6 -17 -24 -19 -45 -6 -11 7 -10
13 4 35 23 35 1 35 -36 0 l-27 -26 -17 25 c-16 25 -17 25 -36 6 -10 -10 -27
-19 -36 -19 -9 0 -31 -14 -49 -31 -29 -28 -31 -33 -19 -55 10 -20 10 -30 -3
-59 -18 -40 -59 -53 -106 -35 -16 6 -30 9 -31 8 -1 -2 -9 -22 -18 -45 -16 -42
-16 -43 3 -43 12 0 23 -7 27 -16 3 -9 13 -14 24 -11 26 7 24 -10 -1 -18 -24
-8 -26 -23 -4 -32 13 -5 12 -8 -5 -25 -22 -20 -28 -34 -11 -23 15 9 30 -4 23
-21 -3 -8 -12 -13 -19 -10 -7 3 -20 -2 -28 -10 -11 -11 -21 -12 -34 -5 -22 12
-44 -16 -35 -47 4 -17 1 -20 -16 -15 -25 6 -27 -4 -5 -29 14 -15 15 -20 4 -33
-10 -12 -10 -19 -2 -27 7 -7 12 -19 12 -28 0 -8 18 -23 40 -32 38 -16 52 -40
30 -53 -5 -3 -10 -1 -10 6 0 20 -49 -31 -52 -55 -2 -11 -15 -27 -30 -34 -20
-9 -28 -21 -28 -40 0 -24 -1 -25 -16 -10 -15 15 -19 15 -40 2 -12 -9 -21 -21
-18 -29 12 -29 -17 -23 -43 10 -34 42 -42 44 -40 8 2 -26 1 -27 -52 -24 l-54
3 23 -39 c13 -21 29 -45 36 -53 11 -13 10 -18 -7 -28 -12 -8 -17 -17 -12 -25
4 -7 6 -22 4 -35 -1 -13 4 -31 12 -40 8 -9 18 -32 22 -49 6 -31 5 -33 -19 -33
-33 0 -35 -27 -3 -40 12 -6 31 -16 42 -22 11 -7 21 -14 23 -15 2 -1 -1 -11 -8
-22 -9 -18 -8 -21 9 -21 11 0 26 9 34 21 13 17 19 19 36 10 17 -10 29 -7 66
14 37 20 50 23 66 14 16 -8 18 -13 9 -24 -9 -11 -6 -16 10 -25 13 -7 19 -18
16 -26 -12 -31 140 -7 164 27 3 4 14 8 25 11 14 2 19 10 17 26 -3 17 1 20 13
16 9 -4 27 -1 41 6 19 11 35 11 81 1 32 -7 74 -12 95 -11 43 0 128 36 128 52
0 9 3 9 11 1 17 -17 49 -153 56 -240 l6 -83 -37 -34 c-39 -38 -99 -53 -159
-42 -44 8 -122 -7 -187 -37 -54 -25 -88 -25 -97 0 -3 8 -16 19 -29 24 -16 5
-35 31 -55 73 -17 36 -41 71 -53 79 -11 8 -40 33 -62 56 -23 22 -51 41 -62 41
-11 0 -22 5 -24 10 -2 6 -32 13 -68 16 -48 4 -71 1 -90 -10 -14 -9 -32 -18
-41 -21 -17 -7 -44 -88 -35 -104 9 -14 -36 -94 -78 -135 -19 -20 -38 -47 -41
-59 l-6 -23 -63 32 c-35 17 -70 34 -77 36 -11 4 -9 11 8 30 32 34 41 86 18 95
-13 4 -26 -3 -45 -24 l-27 -30 5 49 c4 40 2 48 -12 48 -9 0 -16 -7 -16 -15 0
-8 -4 -15 -10 -15 -5 0 -10 7 -10 16 0 22 -24 12 -29 -12 -2 -10 -9 -23 -17
-29 -7 -5 -14 -26 -16 -45 -3 -35 -3 -35 -55 -38 -73 -4 -103 14 -215 131
l-96 101 5 90 c5 83 0 122 -23 181 -4 11 -3 17 1 12 10 -9 45 21 45 39 0 7 14
22 30 34 49 35 73 93 68 162 -3 47 -1 61 14 75 10 9 18 21 18 28 0 26 66 72
118 81 23 4 24 11 7 44 -9 18 -15 33 -13 35 6 5 163 39 171 37 19 -5 135 67
182 113 89 87 179 243 187 324 6 64 -16 49 -70 -49 -37 -68 -118 -159 -175
-198 -64 -43 -173 -87 -182 -73 -2 5 25 44 61 87 36 44 78 97 93 119 58 86
103 232 76 244 -5 3 -26 -16 -45 -42 l-35 -47 -6 57 c-9 82 -45 167 -94 221
-23 26 -50 62 -59 81 -36 68 8 171 94 226 23 14 38 30 34 36 -3 6 -1 21 5 33
9 16 9 29 2 49 -12 32 -25 34 -69 7z m2812 -1449 c3 -5 -1 -11 -9 -14 -9 -4
-12 -1 -8 9 6 16 10 17 17 5z m40 -19 c-7 -16 -15 -47 -17 -70 -3 -29 -12 -49
-28 -63 l-24 -21 -3 21 c-2 12 6 33 17 47 11 15 18 31 15 36 -4 6 -9 6 -14 -2
-5 -8 -9 -7 -13 4 -4 10 1 20 13 26 14 8 20 8 20 0 0 -6 5 -8 10 -5 6 3 10 15
10 25 0 10 6 21 13 23 6 3 13 6 14 6 1 1 -5 -12 -13 -27z m41 -14 c-2 -18 -10
-37 -18 -43 -8 -5 -16 -17 -20 -25 -3 -8 -6 -1 -6 17 -1 19 8 41 22 57 12 14
23 26 24 26 1 0 0 -15 -2 -32z m-267 13 c8 -4 14 -12 15 -17 1 -5 7 -8 14 -8
6 1 9 -5 6 -13 -4 -11 -12 -8 -34 13 -16 15 -29 29 -29 31 0 6 15 3 28 -6z
m349 -11 c-3 -12 1 -23 10 -29 13 -7 10 -11 -16 -24 -29 -15 -31 -14 -31 4 0
10 5 19 11 19 7 0 9 10 7 25 -4 18 -1 25 10 25 9 0 13 -7 9 -20z m-348 -40
c11 -8 21 -20 21 -28 0 -7 7 -15 15 -18 20 -8 19 -24 0 -24 -20 0 -65 29 -65
43 0 5 -12 21 -27 34 -21 20 -23 27 -12 33 9 6 19 3 30 -8 9 -9 26 -24 38 -32z
m138 28 c-3 -8 -6 -5 -6 6 -1 11 2 17 5 13 3 -3 4 -12 1 -19z m165 -10 c-7 -7
-12 -8 -12 -2 0 14 12 26 19 19 2 -3 -1 -11 -7 -17z m-377 -15 l18 -28 -21 19
c-12 11 -22 23 -22 28 0 14 7 9 25 -19z m-76 -19 c3 -16 1 -17 -13 -5 -19 16
-21 34 -3 29 6 -3 14 -13 16 -24z m51 -16 l22 -43 -26 24 c-14 14 -26 33 -26
43 0 27 6 22 30 -24z m160 15 c0 -14 -3 -23 -7 -19 -10 10 -11 46 -1 46 4 0 8
-12 8 -27z m450 22 c0 -2 -13 -11 -30 -20 -28 -14 -30 -14 -30 3 0 13 9 18 30
20 17 1 30 0 30 -3z m-380 -69 c0 -30 0 -30 -19 -11 -14 14 -18 28 -14 49 6
27 7 28 19 11 8 -10 14 -32 14 -49z m254 40 c-3 -9 -17 -16 -29 -16 -13 0 -26
-6 -28 -12 -4 -9 -6 -9 -6 -1 -1 10 60 53 67 48 1 -1 0 -10 -4 -19z m-84 -21
c0 -20 -38 -57 -51 -50 -5 4 2 19 18 35 34 34 33 33 33 15z m-350 -5 c0 -5 -2
-10 -4 -10 -3 0 -8 5 -11 10 -3 6 -1 10 4 10 6 0 11 -4 11 -10z m512 -1 c-4
-4 -35 -18 -69 -31 l-62 -25 16 24 c11 17 23 23 36 19 11 -2 25 1 32 7 7 7 22
13 33 13 12 0 18 -3 14 -7z m-543 -39 c24 -21 46 -40 50 -42 10 -5 59 -133 54
-141 -7 -11 -83 63 -83 80 0 7 -6 13 -13 13 -16 0 -51 45 -71 94 -14 33 -14
36 2 36 9 0 37 -18 61 -40z m83 3 c10 -9 18 -25 18 -36 0 -19 -3 -18 -30 8
-16 16 -30 32 -30 37 0 13 22 9 42 -9z m45 -15 c-3 -8 -6 -5 -6 6 -1 11 2 17
5 13 3 -3 4 -12 1 -19z m151 0 c-8 -12 -21 -24 -29 -26 -8 -3 -3 7 10 22 30
32 39 34 19 4z m125 1 c-4 -13 -8 -16 -13 -9 -5 8 -11 6 -20 -4 -7 -9 -16 -14
-20 -11 -4 3 -27 -24 -51 -60 -23 -36 -44 -65 -45 -65 -3 0 12 50 28 91 10 27
52 54 69 44 5 -4 9 -2 9 3 0 7 17 19 47 31 0 1 -1 -8 -4 -20z m-219 -46 c9
-26 16 -60 15 -77 l0 -31 -11 25 c-15 37 -37 140 -28 135 5 -3 15 -26 24 -52z
m-55 -3 c11 -24 11 -24 -3 -6 -9 11 -16 24 -16 30 0 12 5 7 19 -24z m119 -47
c-26 -74 -28 -76 -28 -20 0 28 6 52 16 61 29 29 33 16 12 -41z m-148 19 c0
-15 -2 -15 -10 -2 -13 20 -13 33 0 25 6 -3 10 -14 10 -23z m64 -71 c9 -27 16
-64 14 -82 l-3 -33 -27 42 c-22 32 -28 54 -28 93 0 63 16 56 44 -20z m-26
-117 c7 -14 12 -37 12 -51 0 -21 -2 -24 -15 -13 -8 7 -15 18 -15 24 0 7 -9 29
-20 51 -25 49 -25 49 3 30 13 -8 29 -27 35 -41z m-4318 -54 c0 -6 -7 -10 -15
-10 -8 0 -18 0 -22 -1 -4 0 -9 3 -10 8 -2 5 8 10 22 11 14 1 25 -3 25 -8z
m-449 -556 c-5 -16 -10 -21 -10 -12 -1 18 10 51 15 45 2 -1 -1 -16 -5 -33z
m-154 -36 c-3 -7 -5 -2 -5 12 0 14 2 19 5 13 2 -7 2 -19 0 -25z m150 -30 c-3
-8 -6 -5 -6 6 -1 11 2 17 5 13 3 -3 4 -12 1 -19z m3630 -15 c-3 -10 -5 -4 -5
12 0 17 2 24 5 18 2 -7 2 -21 0 -30z m-3680 -15 c-3 -8 -6 -5 -6 6 -1 11 2 17
5 13 3 -3 4 -12 1 -19z m1190 -10 c-3 -8 -6 -5 -6 6 -1 11 2 17 5 13 3 -3 4
-12 1 -19z m-1120 -30 c-3 -8 -6 -5 -6 6 -1 11 2 17 5 13 3 -3 4 -12 1 -19z
m130 -40 c-2 -13 -4 -3 -4 22 0 25 2 35 4 23 2 -13 2 -33 0 -45z m3850 -170
c-3 -8 -6 -5 -6 6 -1 11 2 17 5 13 3 -3 4 -12 1 -19z m-2353 -54 c3 -8 2 -12
-4 -9 -6 3 -10 10 -10 16 0 14 7 11 14 -7z"/>
<path d="M3694 2417 c-5 -14 -9 -15 -20 -6 -12 9 -18 8 -29 -7 -11 -16 -17
-17 -33 -7 -29 17 -53 -10 -42 -48 8 -28 -3 -49 -15 -29 -3 5 -10 10 -16 10
-15 0 -11 -22 9 -43 12 -15 14 -21 5 -24 -16 -6 -17 -43 -2 -43 6 0 9 -9 6
-19 -3 -15 2 -23 22 -31 14 -6 37 -17 51 -25 18 -10 28 -11 37 -3 17 14 45
-19 39 -45 -3 -10 2 -21 10 -24 8 -3 22 -19 31 -36 18 -37 32 -51 56 -60 9 -3
17 -14 17 -24 0 -15 2 -16 10 -3 9 13 11 13 20 0 5 -8 12 -19 14 -25 3 -5 10
-2 17 9 10 17 12 16 26 -13 20 -39 37 -40 31 -1 -3 20 0 30 9 30 7 0 13 -4 13
-10 0 -6 9 -6 25 0 14 5 25 7 25 3 0 -3 9 2 20 12 25 23 114 33 135 15 19 -15
18 -16 33 36 16 54 15 54 -8 54 -24 0 -25 6 -5 26 8 9 20 12 26 8 20 -12 88
-15 94 -3 4 5 2 16 -5 24 -9 11 -7 14 11 17 29 4 37 28 10 28 -16 0 -21 6 -21
25 0 14 -7 28 -15 31 -8 4 -15 12 -15 20 0 9 -11 14 -32 14 -31 0 -31 0 -13
20 14 16 16 23 7 32 -9 9 -15 9 -24 0 -16 -16 -29 -15 -22 2 4 10 -4 14 -30
14 -20 0 -39 -4 -42 -9 -8 -14 -24 -11 -24 5 0 17 -35 31 -67 27 -12 -1 -27 6
-35 17 -8 13 -31 22 -65 27 -56 7 -93 -5 -93 -31 0 -11 -5 -14 -17 -9 -10 4
-26 10 -35 12 -21 6 -23 24 -6 41 23 23 -3 25 -34 2 -21 -15 -29 -18 -26 -8 4
8 2 21 -2 29 -7 11 -10 10 -16 -4z"/>
</g>
</svg>
