<?xml version="1.0" standalone="no"?>
<!DOCTYPE svg PUBLIC "-//W3C//DTD SVG 20010904//EN"
 "http://www.w3.org/TR/2001/REC-SVG-20010904/DTD/svg10.dtd">
<svg version="1.0" xmlns="http://www.w3.org/2000/svg"
 width="580.000000pt" height="386.000000pt" viewBox="0 0 580.000000 386.000000"
 preserveAspectRatio="xMidYMid meet">

<g transform="translate(0.000000,386.000000) scale(0.100000,-0.100000)"
fill="#000000" stroke="none">
<path d="M2735 2815 c-38 -7 -88 -16 -110 -20 -22 -4 -65 -18 -95 -32 -30 -14
-75 -35 -100 -46 -25 -12 -74 -41 -109 -65 -50 -35 -66 -41 -73 -30 -7 10 -9
10 -7 -2 3 -29 -1 -40 -16 -40 -8 0 -15 -4 -15 -10 0 -5 -7 -6 -17 -3 -10 4
-14 2 -9 -5 7 -12 -80 -108 -95 -104 -5 1 -8 -1 -8 -5 3 -21 -2 -33 -16 -33
-8 0 -12 -6 -10 -12 3 -7 -6 -26 -20 -42 -14 -16 -25 -34 -25 -40 0 -6 -11
-23 -25 -38 -14 -15 -25 -34 -25 -41 0 -18 -25 -68 -31 -63 -2 2 -5 -14 -6
-37 -1 -23 -6 -43 -12 -45 -6 -2 -11 -14 -11 -27 0 -13 -4 -26 -9 -29 -11 -7
-20 -86 -23 -204 -1 -51 -6 -96 -10 -98 -5 -3 -4 -12 3 -20 29 -35 0 -46 -156
-58 -30 -2 -49 -8 -47 -15 1 -6 -2 -11 -7 -11 -6 0 -9 9 -8 19 0 11 4 18 8 15
4 -2 9 2 12 9 3 7 -3 13 -13 13 -10 0 -16 -5 -13 -10 4 -6 -1 -6 -13 -2 -10 4
-15 4 -12 0 4 -4 3 -16 -3 -28 -9 -19 -9 -19 4 -3 8 9 16 17 18 17 9 0 2 -49
-8 -62 -6 -7 -13 -27 -16 -45 -11 -59 -96 -200 -149 -248 -52 -47 -68 -49 -68
-12 0 18 -2 19 -10 7 -5 -8 -10 -44 -10 -79 0 -52 6 -77 38 -145 156 -332 437
-616 766 -776 421 -205 899 -223 1336 -51 374 146 677 424 862 790 54 105 58
118 58 182 0 66 -13 90 -27 53 -6 -16 -7 -16 -18 0 -11 14 -14 13 -28 -16 -11
-21 -17 -27 -17 -15 0 10 -5 15 -10 12 -6 -3 -13 1 -16 10 -5 12 -9 13 -20 4
-11 -9 -14 -8 -15 2 0 8 -4 5 -9 -6 l-9 -20 0 20 c-1 15 -3 17 -10 7 -12 -20
-25 -16 -33 10 -4 18 -6 14 -7 -17 l-2 -40 -14 33 c-8 18 -17 49 -21 70 -3 20
-12 47 -20 59 -19 31 -18 35 9 22 48 -26 57 -29 78 -29 19 0 21 4 15 44 -6 39
-4 46 13 56 12 6 21 16 21 23 0 7 15 19 33 27 38 18 60 65 37 81 -8 5 -31 7
-50 3 -51 -10 -95 -7 -122 7 -13 7 -35 12 -50 10 -15 -1 -36 3 -47 9 -16 8
-21 8 -21 -1 0 -7 -13 -10 -34 -7 -19 2 -33 1 -30 -3 2 -4 -9 -14 -24 -22 -26
-13 -30 -12 -41 4 -6 10 -11 22 -11 26 0 5 5 1 10 -7 7 -10 10 -11 10 -2 0 7
-7 15 -15 18 -8 4 -15 10 -15 15 0 14 28 11 33 -3 4 -10 6 -10 6 0 1 7 -5 15
-12 18 -13 5 -15 68 -4 172 3 28 0 48 -9 56 -7 8 -10 16 -7 19 3 3 0 20 -6 38
-11 31 -11 31 20 25 27 -5 29 -4 14 10 -8 9 -22 14 -29 11 -29 -11 -25 25 7
64 26 32 37 39 57 34 64 -14 108 -17 114 -6 4 6 12 11 17 11 6 0 8 -3 6 -7 -3
-5 21 -9 53 -11 44 -2 69 2 99 17 22 12 56 21 75 21 19 0 38 5 41 10 14 23
-23 46 -107 64 -20 5 -28 13 -28 27 0 11 -8 28 -17 37 -15 15 -15 17 -1 20 9
2 19 10 22 18 6 16 -30 58 -43 49 -5 -2 -14 2 -21 10 -9 11 -17 12 -30 5 -25
-13 -27 -13 -33 9 -3 13 3 22 20 30 25 11 29 46 6 46 -6 0 -15 3 -19 8 -4 4
-16 7 -26 7 -10 0 -18 5 -18 10 0 6 -6 10 -12 10 -7 0 -24 12 -37 26 -17 17
-32 24 -48 21 -12 -2 -28 2 -34 9 -6 8 -24 14 -40 14 -16 0 -29 4 -29 9 0 14
-52 29 -101 28 -46 -1 -50 4 -24 29 14 14 19 11 16 -8 0 -4 7 -4 16 -1 11 4
13 8 5 11 -7 2 -10 7 -7 12 3 5 -1 7 -9 6 -21 -3 -56 -36 -56 -53 0 -16 -12
-17 -27 -2 -8 8 -13 7 -18 -2 -6 -8 -4 -10 5 -4 9 5 11 4 6 -4 -6 -9 -11 -9
-23 1 -9 7 -25 11 -37 10 -17 -3 -18 -2 -7 12 7 9 10 16 5 16 -4 0 3 11 16 25
13 14 19 25 13 25 -6 0 -13 -7 -17 -15 -3 -8 -13 -15 -22 -15 -14 0 -14 -3 -4
-15 11 -13 10 -14 -4 -9 -9 3 -16 11 -16 16 0 6 -7 7 -16 4 -8 -3 -12 -2 -9 4
4 6 -8 10 -28 10 -24 0 -37 6 -42 17 -6 16 -8 15 -26 -7 -12 -14 -17 -19 -13
-11 5 11 3 13 -9 8 -11 -4 -14 -2 -10 9 4 10 0 12 -11 8 -10 -4 -18 0 -22 10
-3 9 -10 13 -15 10 -12 -7 -49 5 -49 16 0 4 10 6 22 2 15 -4 19 -2 14 7 -5 7
-19 10 -36 6 -18 -4 -33 -1 -43 9 -9 9 -23 16 -32 16 -9 0 -13 4 -10 10 3 6
-1 7 -9 4 -9 -3 -24 -3 -33 2 -10 4 -25 9 -33 10 -8 2 -44 10 -80 20 -85 21
-293 26 -385 9z m1310 -626 c-22 -3 -49 -10 -60 -14 -11 -4 -4 3 15 17 29 21
39 23 60 14 23 -11 23 -11 -15 -17z m65 16 c0 -8 -4 -15 -10 -15 -5 0 -7 7 -4
15 4 8 8 15 10 15 2 0 4 -7 4 -15z m-200 -105 c0 -5 -5 -12 -12 -16 -7 -4 -8
-3 -4 4 4 7 2 12 -3 12 -6 0 -11 4 -11 10 0 5 7 7 15 4 8 -4 15 -10 15 -14z
m30 -210 c0 -5 -2 -10 -4 -10 -3 0 -8 5 -11 10 -3 6 -1 10 4 10 6 0 11 -4 11
-10z m-2290 -429 c0 -7 -13 -28 -29 -47 -22 -24 -31 -48 -36 -89 -8 -58 -24
-69 -36 -24 -7 23 -7 22 -8 -6 -1 -23 -3 -27 -11 -15 -6 10 -10 11 -10 3 0
-20 -17 -15 -23 7 -4 14 2 23 21 32 49 24 103 124 104 193 0 15 3 13 14 -10 7
-16 13 -36 14 -44z m2276 -19 c10 -22 21 -32 30 -28 8 3 14 2 14 -2 0 -4 28
-7 63 -6 34 0 65 -4 69 -10 13 -19 9 -66 -7 -72 -8 -4 -12 -10 -9 -15 3 -5 0
-17 -5 -26 -7 -11 -11 -13 -11 -5 0 7 -7 21 -16 29 -14 14 -17 14 -32 -1 -16
-16 -16 -17 2 -14 10 2 21 -3 23 -10 3 -8 -1 -10 -12 -6 -10 4 -21 1 -26 -7
-7 -11 -9 -11 -9 2 0 9 -8 23 -17 30 -15 12 -16 12 -10 -4 4 -11 3 -16 -3 -12
-6 3 -10 16 -11 28 0 12 -3 16 -6 10 -2 -7 -11 -13 -19 -13 -9 0 -12 -4 -9
-10 3 -5 0 -10 -8 -10 -8 0 -14 7 -13 16 0 9 -5 19 -13 22 -10 3 -12 -1 -9
-16 4 -16 0 -22 -21 -28 -14 -4 -30 -6 -35 -5 -5 1 -13 -4 -17 -11 -7 -10 -9
-9 -9 3 0 22 11 31 26 18 8 -7 14 -7 19 1 4 6 1 9 -6 8 -6 -2 -14 3 -16 10 -3
6 0 12 7 12 6 0 8 5 5 10 -3 6 2 22 13 38 11 15 23 38 27 52 4 14 13 31 19 39
8 11 8 13 -1 8 -8 -5 -8 2 0 30 l12 38 3 -30 c2 -16 10 -45 18 -63z m-2001
-30 c-3 -8 0 -10 7 -6 7 5 9 0 6 -14 -4 -12 -2 -20 3 -17 4 3 8 -18 8 -48 -1
-62 -23 -75 -38 -23 -7 22 -9 25 -10 10 -1 -11 -7 -21 -15 -21 -8 0 -12 6 -9
14 7 18 -8 16 -36 -4 -14 -9 -21 -11 -17 -5 4 7 1 12 -8 12 -8 0 -18 -5 -22
-12 -5 -7 -2 -8 7 -3 12 7 12 6 1 -6 -22 -24 -52 26 -52 87 l0 51 90 -1 c70
-1 89 -4 85 -14z m-228 -37 c-3 -19 -1 -37 4 -41 5 -3 7 -10 3 -15 -3 -5 -10
-6 -16 -3 -6 4 -8 2 -5 -4 10 -15 -3 -42 -19 -42 -8 0 -14 8 -15 18 0 13 -3
11 -10 -6 -10 -25 -29 -21 -29 6 0 9 9 32 20 50 16 27 25 32 43 27 16 -5 18
-4 8 3 -12 8 -12 12 0 26 20 22 22 20 16 -19z m2450 -92 c-3 -10 -5 -4 -5 12
0 17 2 24 5 18 2 -7 2 -21 0 -30z m-2413 -5 c-4 -6 -10 -5 -15 3 -14 22 -10
33 6 19 8 -7 12 -17 9 -22z m-244 14 c0 -5 -8 -19 -19 -31 l-19 -21 -4 24 c-4
17 0 26 11 29 27 8 31 7 31 -1z"/>
<path d="M3940 1393 c5 -2 10 -11 10 -18 0 -8 4 -17 10 -20 6 -4 7 2 1 16 -4
13 -13 24 -20 25 -6 1 -7 0 -1 -3z"/>
<path d="M1820 1400 c12 -8 12 -10 -5 -10 -16 0 -15 -3 9 -15 37 -20 56 -8 25
16 -13 10 -28 19 -34 19 -5 0 -3 -5 5 -10z m35 -28 c-3 -3 -11 0 -18 7 -9 10
-8 11 6 5 10 -3 15 -9 12 -12z"/>
<path d="M3428 2722 c9 -10 19 -17 21 -16 6 5 -20 34 -30 34 -5 0 -1 -8 9 -18z"/>
<path d="M3490 2721 c0 -5 5 -13 10 -16 6 -3 10 -2 10 4 0 5 -4 13 -10 16 -5
3 -10 2 -10 -4z"/>
<path d="M3470 2689 c0 -5 5 -7 10 -4 6 3 10 8 10 11 0 2 -4 4 -10 4 -5 0 -10
-5 -10 -11z"/>
<path d="M3530 2680 c0 -5 15 -10 33 -9 27 0 29 2 12 9 -28 12 -45 12 -45 0z"/>
<path d="M3825 2661 c-3 -5 -2 -12 3 -15 5 -3 9 1 9 9 0 17 -3 19 -12 6z"/>
<path d="M3851 2641 c-11 -19 -5 -31 13 -31 6 0 4 5 -4 10 -8 5 -10 10 -4 10
6 0 11 7 11 15 0 20 -4 19 -16 -4z"/>
<path d="M1707 2253 c-11 -10 -8 -43 3 -43 6 0 10 11 10 25 0 26 -2 29 -13 18z"/>
<path d="M3959 2098 c-1 -7 -1 -19 0 -27 2 -7 -1 -11 -6 -8 -5 3 -9 -3 -9 -14
0 -19 1 -18 17 3 12 15 14 25 7 29 -7 4 -6 8 3 11 10 3 10 6 1 12 -7 4 -13 2
-13 -6z"/>
<path d="M3980 2050 c0 -5 5 -10 11 -10 5 0 7 5 4 10 -3 6 -8 10 -11 10 -2 0
-4 -4 -4 -10z"/>
<path d="M3991 1814 c0 -11 3 -14 6 -6 3 7 2 16 -1 19 -3 4 -6 -2 -5 -13z"/>
<path d="M3977 1770 c3 -11 7 -20 9 -20 2 0 4 9 4 20 0 11 -4 20 -9 20 -5 0
-7 -9 -4 -20z"/>
<path d="M1605 1770 c-3 -5 -1 -10 4 -10 6 0 11 5 11 10 0 6 -2 10 -4 10 -3 0
-8 -4 -11 -10z"/>
<path d="M1740 1770 c0 -5 5 -10 10 -10 6 0 10 5 10 10 0 6 -4 10 -10 10 -5 0
-10 -4 -10 -10z"/>
<path d="M1750 1730 c0 -5 7 -10 15 -10 8 0 15 5 15 10 0 6 -7 10 -15 10 -8 0
-15 -4 -15 -10z"/>
<path d="M3981 1686 c-7 -8 -8 -17 -3 -20 6 -3 12 3 15 14 6 24 4 25 -12 6z"/>
<path d="M4175 1690 c-3 -5 -1 -10 4 -10 6 0 11 5 11 10 0 6 -2 10 -4 10 -3 0
-8 -4 -11 -10z"/>
<path d="M4028 1683 c7 -3 16 -2 19 1 4 3 -2 6 -13 5 -11 0 -14 -3 -6 -6z"/>
<path d="M4020 1660 c0 -5 5 -10 10 -10 6 0 10 5 10 10 0 6 -4 10 -10 10 -5 0
-10 -4 -10 -10z"/>
<path d="M3961 1634 c0 -11 3 -14 6 -6 3 7 2 16 -1 19 -3 4 -6 -2 -5 -13z"/>
</g>
</svg>
